<mxfile host="Electron" modified="2023-12-10T14:28:02.853Z" agent="Mozilla/5.0 (Windows NT 10.0; Win64; x64) AppleWebKit/537.36 (KHTML, like Gecko) draw.io/22.1.2 Chrome/114.0.5735.289 Electron/25.9.4 Safari/537.36" etag="EGlU5LgckAVIa_Wgt-Sh" version="22.1.2" type="device">
  <diagram name="Page-1" id="jDLiE_NmxeGiL-8MeS3a">
    <mxGraphModel dx="918" dy="604" grid="1" gridSize="10" guides="1" tooltips="1" connect="1" arrows="1" fold="1" page="1" pageScale="1" pageWidth="850" pageHeight="1100" math="0" shadow="0">
      <root>
        <mxCell id="0" />
        <mxCell id="1" parent="0" />
        <mxCell id="z6ok7MQdm74nRPPBf7Uy-3" value="" style="edgeStyle=orthogonalEdgeStyle;rounded=0;orthogonalLoop=1;jettySize=auto;html=1;" parent="1" source="z6ok7MQdm74nRPPBf7Uy-1" target="z6ok7MQdm74nRPPBf7Uy-2" edge="1">
          <mxGeometry relative="1" as="geometry" />
        </mxCell>
        <mxCell id="z6ok7MQdm74nRPPBf7Uy-1" value="Start" style="ellipse;whiteSpace=wrap;html=1;" parent="1" vertex="1">
          <mxGeometry x="340" y="10" width="120" height="80" as="geometry" />
        </mxCell>
        <mxCell id="z6ok7MQdm74nRPPBf7Uy-5" value="" style="edgeStyle=orthogonalEdgeStyle;rounded=0;orthogonalLoop=1;jettySize=auto;html=1;" parent="1" source="z6ok7MQdm74nRPPBf7Uy-2" target="z6ok7MQdm74nRPPBf7Uy-4" edge="1">
          <mxGeometry relative="1" as="geometry" />
        </mxCell>
        <mxCell id="z6ok7MQdm74nRPPBf7Uy-2" value="Input iNumberOfProcess&lt;span style=&quot;white-space: pre;&quot;&gt;&#x9;&lt;/span&gt;&lt;span style=&quot;white-space: pre;&quot;&gt;&#x9;&lt;/span&gt;" style="shape=parallelogram;perimeter=parallelogramPerimeter;whiteSpace=wrap;html=1;fixedSize=1;" parent="1" vertex="1">
          <mxGeometry x="340" y="120" width="120" height="60" as="geometry" />
        </mxCell>
        <mxCell id="z6ok7MQdm74nRPPBf7Uy-7" value="" style="edgeStyle=orthogonalEdgeStyle;rounded=0;orthogonalLoop=1;jettySize=auto;html=1;" parent="1" source="z6ok7MQdm74nRPPBf7Uy-4" target="z6ok7MQdm74nRPPBf7Uy-6" edge="1">
          <mxGeometry relative="1" as="geometry" />
        </mxCell>
        <mxCell id="z6ok7MQdm74nRPPBf7Uy-4" value="PCB Input[]&lt;br&gt;ReadyQueue[]&lt;br&gt;TerminatedArray[]&lt;br&gt;int iRemain=n;&lt;br&gt;int iReady=0;&lt;br&gt;int iTerminated=0;" style="whiteSpace=wrap;html=1;" parent="1" vertex="1">
          <mxGeometry x="340" y="210" width="120" height="110" as="geometry" />
        </mxCell>
        <mxCell id="z6ok7MQdm74nRPPBf7Uy-9" value="" style="edgeStyle=orthogonalEdgeStyle;rounded=0;orthogonalLoop=1;jettySize=auto;html=1;" parent="1" source="z6ok7MQdm74nRPPBf7Uy-6" target="z6ok7MQdm74nRPPBf7Uy-8" edge="1">
          <mxGeometry relative="1" as="geometry" />
        </mxCell>
        <mxCell id="z6ok7MQdm74nRPPBf7Uy-6" value="Input Input[]" style="shape=parallelogram;perimeter=parallelogramPerimeter;whiteSpace=wrap;html=1;fixedSize=1;" parent="1" vertex="1">
          <mxGeometry x="340" y="350" width="120" height="60" as="geometry" />
        </mxCell>
        <mxCell id="z6ok7MQdm74nRPPBf7Uy-11" value="" style="edgeStyle=orthogonalEdgeStyle;rounded=0;orthogonalLoop=1;jettySize=auto;html=1;" parent="1" source="z6ok7MQdm74nRPPBf7Uy-8" target="z6ok7MQdm74nRPPBf7Uy-10" edge="1">
          <mxGeometry relative="1" as="geometry" />
        </mxCell>
        <mxCell id="z6ok7MQdm74nRPPBf7Uy-8" value="Sort Input[]" style="whiteSpace=wrap;html=1;" parent="1" vertex="1">
          <mxGeometry x="340" y="440" width="120" height="60" as="geometry" />
        </mxCell>
        <mxCell id="z6ok7MQdm74nRPPBf7Uy-30" value="" style="edgeStyle=orthogonalEdgeStyle;rounded=0;orthogonalLoop=1;jettySize=auto;html=1;entryX=1;entryY=0.5;entryDx=0;entryDy=0;" parent="1" source="z6ok7MQdm74nRPPBf7Uy-10" target="JK1EgqcF9gkxnlWHgztH-6" edge="1">
          <mxGeometry relative="1" as="geometry" />
        </mxCell>
        <mxCell id="z6ok7MQdm74nRPPBf7Uy-10" value="Push Input[0] into ReadyQueue[]; iReady++; Remove Input[0]; iRemain--;" style="whiteSpace=wrap;html=1;" parent="1" vertex="1">
          <mxGeometry x="340" y="530" width="120" height="70" as="geometry" />
        </mxCell>
        <mxCell id="z6ok7MQdm74nRPPBf7Uy-15" value="" style="edgeStyle=orthogonalEdgeStyle;rounded=0;orthogonalLoop=1;jettySize=auto;html=1;" parent="1" source="z6ok7MQdm74nRPPBf7Uy-12" target="z6ok7MQdm74nRPPBf7Uy-14" edge="1">
          <mxGeometry relative="1" as="geometry" />
        </mxCell>
        <mxCell id="z6ok7MQdm74nRPPBf7Uy-38" value="" style="edgeStyle=orthogonalEdgeStyle;rounded=0;orthogonalLoop=1;jettySize=auto;html=1;" parent="1" source="z6ok7MQdm74nRPPBf7Uy-12" target="z6ok7MQdm74nRPPBf7Uy-37" edge="1">
          <mxGeometry relative="1" as="geometry" />
        </mxCell>
        <mxCell id="z6ok7MQdm74nRPPBf7Uy-12" value="iTerminated &amp;lt; iNumberOfProcess" style="rhombus;whiteSpace=wrap;html=1;" parent="1" vertex="1">
          <mxGeometry x="330" y="780" width="140" height="100" as="geometry" />
        </mxCell>
        <mxCell id="z6ok7MQdm74nRPPBf7Uy-18" value="" style="edgeStyle=orthogonalEdgeStyle;rounded=0;orthogonalLoop=1;jettySize=auto;html=1;" parent="1" source="z6ok7MQdm74nRPPBf7Uy-14" target="z6ok7MQdm74nRPPBf7Uy-17" edge="1">
          <mxGeometry relative="1" as="geometry" />
        </mxCell>
        <mxCell id="z6ok7MQdm74nRPPBf7Uy-25" value="" style="edgeStyle=orthogonalEdgeStyle;rounded=0;orthogonalLoop=1;jettySize=auto;html=1;" parent="1" source="z6ok7MQdm74nRPPBf7Uy-14" target="z6ok7MQdm74nRPPBf7Uy-24" edge="1">
          <mxGeometry relative="1" as="geometry" />
        </mxCell>
        <mxCell id="z6ok7MQdm74nRPPBf7Uy-14" value="iRemain&amp;gt;0" style="rhombus;whiteSpace=wrap;html=1;" parent="1" vertex="1">
          <mxGeometry x="360" y="940" width="80" height="80" as="geometry" />
        </mxCell>
        <mxCell id="z6ok7MQdm74nRPPBf7Uy-16" value="Đ" style="text;html=1;strokeColor=none;fillColor=none;align=center;verticalAlign=middle;whiteSpace=wrap;rounded=0;" parent="1" vertex="1">
          <mxGeometry x="350" y="890" width="60" height="30" as="geometry" />
        </mxCell>
        <mxCell id="z6ok7MQdm74nRPPBf7Uy-21" value="" style="edgeStyle=orthogonalEdgeStyle;rounded=0;orthogonalLoop=1;jettySize=auto;html=1;" parent="1" source="z6ok7MQdm74nRPPBf7Uy-17" target="z6ok7MQdm74nRPPBf7Uy-20" edge="1">
          <mxGeometry relative="1" as="geometry" />
        </mxCell>
        <mxCell id="z6ok7MQdm74nRPPBf7Uy-17" value="Input[0].iArrival &amp;lt;= ReadyQueue[0].iFinish" style="rhombus;whiteSpace=wrap;html=1;" parent="1" vertex="1">
          <mxGeometry x="320" y="1100" width="160" height="130" as="geometry" />
        </mxCell>
        <mxCell id="z6ok7MQdm74nRPPBf7Uy-19" value="Đ" style="text;html=1;strokeColor=none;fillColor=none;align=center;verticalAlign=middle;whiteSpace=wrap;rounded=0;" parent="1" vertex="1">
          <mxGeometry x="350" y="1040" width="60" height="30" as="geometry" />
        </mxCell>
        <mxCell id="z6ok7MQdm74nRPPBf7Uy-20" value="Push Input[0] into ReadyQueue[], iReady++; Remove Input[0], iRemain--." style="whiteSpace=wrap;html=1;" parent="1" vertex="1">
          <mxGeometry x="340" y="1345" width="120" height="75" as="geometry" />
        </mxCell>
        <mxCell id="z6ok7MQdm74nRPPBf7Uy-22" value="Đ" style="text;html=1;strokeColor=none;fillColor=none;align=center;verticalAlign=middle;whiteSpace=wrap;rounded=0;" parent="1" vertex="1">
          <mxGeometry x="350" y="1270" width="60" height="30" as="geometry" />
        </mxCell>
        <mxCell id="z6ok7MQdm74nRPPBf7Uy-28" value="" style="edgeStyle=orthogonalEdgeStyle;rounded=0;orthogonalLoop=1;jettySize=auto;html=1;" parent="1" source="z6ok7MQdm74nRPPBf7Uy-24" target="z6ok7MQdm74nRPPBf7Uy-27" edge="1">
          <mxGeometry relative="1" as="geometry" />
        </mxCell>
        <mxCell id="z6ok7MQdm74nRPPBf7Uy-24" value="iReady&amp;gt;0" style="rhombus;whiteSpace=wrap;html=1;" parent="1" vertex="1">
          <mxGeometry x="620" y="855" width="80" height="80" as="geometry" />
        </mxCell>
        <mxCell id="z6ok7MQdm74nRPPBf7Uy-26" value="S" style="text;html=1;strokeColor=none;fillColor=none;align=center;verticalAlign=middle;whiteSpace=wrap;rounded=0;" parent="1" vertex="1">
          <mxGeometry x="500" y="950" width="60" height="30" as="geometry" />
        </mxCell>
        <mxCell id="V2VzXVplLO1bKWlu_DsH-2" value="" style="edgeStyle=orthogonalEdgeStyle;rounded=0;orthogonalLoop=1;jettySize=auto;html=1;" edge="1" parent="1" source="z6ok7MQdm74nRPPBf7Uy-27" target="V2VzXVplLO1bKWlu_DsH-1">
          <mxGeometry relative="1" as="geometry" />
        </mxCell>
        <mxCell id="z6ok7MQdm74nRPPBf7Uy-27" value="Push ReadyQueue[0] into TerminatedArray, iTerminated++; remove ReadyQueue[0], iReady--;" style="whiteSpace=wrap;html=1;" parent="1" vertex="1">
          <mxGeometry x="690" y="680" width="150" height="90" as="geometry" />
        </mxCell>
        <mxCell id="z6ok7MQdm74nRPPBf7Uy-29" value="&lt;br&gt;ReadyQueue[0].iFinish = ReadyQueue[0].iStart +ReadyQueue[0].iBurst;&lt;br&gt;ReadyQueue[0].iResponse = ReadyQueue[0].iStart -ReadyQueue[0].iArrival;&lt;br&gt;ReadyQueue[0].iWaiting = ReadyQueue[0].iResponse;&lt;br&gt;ReadyQueue[0].iTaT = ReadyQueue[0].iFinish -ReadyQueue[0].iArrival;" style="rounded=0;whiteSpace=wrap;html=1;" parent="1" vertex="1">
          <mxGeometry x="20" y="535" width="230" height="180" as="geometry" />
        </mxCell>
        <mxCell id="z6ok7MQdm74nRPPBf7Uy-31" value="" style="endArrow=classic;html=1;rounded=0;exitX=0.5;exitY=1;exitDx=0;exitDy=0;entryX=0.5;entryY=0;entryDx=0;entryDy=0;" parent="1" source="z6ok7MQdm74nRPPBf7Uy-29" target="z6ok7MQdm74nRPPBf7Uy-12" edge="1">
          <mxGeometry width="50" height="50" relative="1" as="geometry">
            <mxPoint x="420" y="820" as="sourcePoint" />
            <mxPoint x="470" y="770" as="targetPoint" />
            <Array as="points">
              <mxPoint x="135" y="760" />
              <mxPoint x="400" y="760" />
            </Array>
          </mxGeometry>
        </mxCell>
        <mxCell id="z6ok7MQdm74nRPPBf7Uy-32" value="Đ" style="text;html=1;strokeColor=none;fillColor=none;align=center;verticalAlign=middle;whiteSpace=wrap;rounded=0;" parent="1" vertex="1">
          <mxGeometry x="620" y="800" width="60" height="30" as="geometry" />
        </mxCell>
        <mxCell id="z6ok7MQdm74nRPPBf7Uy-34" value="" style="endArrow=classic;html=1;rounded=0;exitX=0;exitY=0.5;exitDx=0;exitDy=0;entryX=1;entryY=0.5;entryDx=0;entryDy=0;" parent="1" source="z6ok7MQdm74nRPPBf7Uy-24" target="z6ok7MQdm74nRPPBf7Uy-12" edge="1">
          <mxGeometry width="50" height="50" relative="1" as="geometry">
            <mxPoint x="420" y="920" as="sourcePoint" />
            <mxPoint x="470" y="870" as="targetPoint" />
            <Array as="points">
              <mxPoint x="620" y="830" />
            </Array>
          </mxGeometry>
        </mxCell>
        <mxCell id="z6ok7MQdm74nRPPBf7Uy-35" value="S" style="text;html=1;strokeColor=none;fillColor=none;align=center;verticalAlign=middle;whiteSpace=wrap;rounded=0;" parent="1" vertex="1">
          <mxGeometry x="520" y="800" width="60" height="30" as="geometry" />
        </mxCell>
        <mxCell id="z6ok7MQdm74nRPPBf7Uy-41" value="" style="edgeStyle=orthogonalEdgeStyle;rounded=0;orthogonalLoop=1;jettySize=auto;html=1;" parent="1" source="z6ok7MQdm74nRPPBf7Uy-37" target="z6ok7MQdm74nRPPBf7Uy-40" edge="1">
          <mxGeometry relative="1" as="geometry" />
        </mxCell>
        <mxCell id="z6ok7MQdm74nRPPBf7Uy-37" value="&lt;div&gt;printf(&quot;\n===== SJF Scheduling =====\n&quot;);&lt;/div&gt;&lt;div&gt;exportGanttChart(iTerminated, TerminatedArray);&lt;/div&gt;&lt;div&gt;quickSort(TerminatedArray, 0, iTerminated - 1,&lt;/div&gt;&lt;div&gt;SORT_BY_PID);&lt;/div&gt;&lt;div&gt;calculateAWT(iTerminated, TerminatedArray);&lt;/div&gt;&lt;div&gt;calculateATaT(iTerminated, TerminatedArray);&lt;/div&gt;" style="whiteSpace=wrap;html=1;" parent="1" vertex="1">
          <mxGeometry x="30" y="900" width="180" height="180" as="geometry" />
        </mxCell>
        <mxCell id="z6ok7MQdm74nRPPBf7Uy-39" value="S" style="text;html=1;strokeColor=none;fillColor=none;align=center;verticalAlign=middle;whiteSpace=wrap;rounded=0;" parent="1" vertex="1">
          <mxGeometry x="200" y="800" width="60" height="30" as="geometry" />
        </mxCell>
        <mxCell id="z6ok7MQdm74nRPPBf7Uy-40" value="End" style="ellipse;whiteSpace=wrap;html=1;" parent="1" vertex="1">
          <mxGeometry x="80" y="1210" width="80" height="40" as="geometry" />
        </mxCell>
        <mxCell id="JK1EgqcF9gkxnlWHgztH-1" value="" style="endArrow=classic;html=1;rounded=0;exitX=1;exitY=0.5;exitDx=0;exitDy=0;entryX=1;entryY=0.5;entryDx=0;entryDy=0;" parent="1" source="z6ok7MQdm74nRPPBf7Uy-17" target="z6ok7MQdm74nRPPBf7Uy-24" edge="1">
          <mxGeometry width="50" height="50" relative="1" as="geometry">
            <mxPoint x="380" y="1190" as="sourcePoint" />
            <mxPoint x="430" y="1140" as="targetPoint" />
            <Array as="points">
              <mxPoint x="760" y="1165" />
              <mxPoint x="760" y="895" />
            </Array>
          </mxGeometry>
        </mxCell>
        <mxCell id="JK1EgqcF9gkxnlWHgztH-2" value="S" style="text;html=1;strokeColor=none;fillColor=none;align=center;verticalAlign=middle;whiteSpace=wrap;rounded=0;" parent="1" vertex="1">
          <mxGeometry x="570" y="1140" width="60" height="30" as="geometry" />
        </mxCell>
        <mxCell id="JK1EgqcF9gkxnlWHgztH-5" value="" style="endArrow=classic;html=1;rounded=0;exitX=0;exitY=0.5;exitDx=0;exitDy=0;entryX=0;entryY=0.5;entryDx=0;entryDy=0;" parent="1" source="z6ok7MQdm74nRPPBf7Uy-20" target="z6ok7MQdm74nRPPBf7Uy-14" edge="1">
          <mxGeometry width="50" height="50" relative="1" as="geometry">
            <mxPoint x="260" y="1230" as="sourcePoint" />
            <mxPoint x="340" y="1120" as="targetPoint" />
            <Array as="points">
              <mxPoint x="260" y="1383" />
              <mxPoint x="260" y="980" />
            </Array>
          </mxGeometry>
        </mxCell>
        <mxCell id="JK1EgqcF9gkxnlWHgztH-7" value="" style="edgeStyle=orthogonalEdgeStyle;rounded=0;orthogonalLoop=1;jettySize=auto;html=1;" parent="1" source="JK1EgqcF9gkxnlWHgztH-6" target="z6ok7MQdm74nRPPBf7Uy-29" edge="1">
          <mxGeometry relative="1" as="geometry" />
        </mxCell>
        <mxCell id="JK1EgqcF9gkxnlWHgztH-6" value="ReadyQueue[0].iStart = ReadyQueue[0].iArrival;" style="rounded=0;whiteSpace=wrap;html=1;" parent="1" vertex="1">
          <mxGeometry x="60" y="390" width="150" height="60" as="geometry" />
        </mxCell>
        <mxCell id="JK1EgqcF9gkxnlWHgztH-9" value="" style="edgeStyle=orthogonalEdgeStyle;rounded=0;orthogonalLoop=1;jettySize=auto;html=1;" parent="1" source="JK1EgqcF9gkxnlWHgztH-8" target="z6ok7MQdm74nRPPBf7Uy-29" edge="1">
          <mxGeometry relative="1" as="geometry" />
        </mxCell>
        <mxCell id="JK1EgqcF9gkxnlWHgztH-8" value="ReadyQueue[0].iStart = TerminatedArray[iTerminated-1].iFinish" style="rounded=0;whiteSpace=wrap;html=1;" parent="1" vertex="1">
          <mxGeometry x="490" y="595" width="180" height="60" as="geometry" />
        </mxCell>
        <mxCell id="V2VzXVplLO1bKWlu_DsH-1" value="Sort ReadyQueue[]&lt;br&gt;by burst" style="whiteSpace=wrap;html=1;" vertex="1" parent="1">
          <mxGeometry x="705" y="525" width="120" height="60" as="geometry" />
        </mxCell>
        <mxCell id="V2VzXVplLO1bKWlu_DsH-3" value="" style="endArrow=classic;html=1;rounded=0;exitX=0;exitY=0.5;exitDx=0;exitDy=0;entryX=0.5;entryY=0;entryDx=0;entryDy=0;" edge="1" parent="1" source="V2VzXVplLO1bKWlu_DsH-1" target="JK1EgqcF9gkxnlWHgztH-8">
          <mxGeometry width="50" height="50" relative="1" as="geometry">
            <mxPoint x="360" y="720" as="sourcePoint" />
            <mxPoint x="410" y="670" as="targetPoint" />
            <Array as="points">
              <mxPoint x="580" y="555" />
            </Array>
          </mxGeometry>
        </mxCell>
      </root>
    </mxGraphModel>
  </diagram>
</mxfile>
